<svg xmlns="http://www.w3.org/2000/svg" xmlns:xlink="http://www.w3.org/1999/xlink" viewBox="0 0 568.7 492.24"><defs><style>.cls-1{fill:#fff;}.cls-2{fill:url(#linear-gradient);}.cls-3{fill:url(#linear-gradient-4);}.cls-4{fill:url(#linear-gradient-9);}.cls-5{fill:url(#linear-gradient-10);}.cls-6{fill:url(#linear-gradient-11);}.cls-7{fill:url(#linear-gradient-12);}.cls-8{fill:url(#linear-gradient-13);}.cls-9{fill:url(#linear-gradient-15);}.cls-10{fill:url(#linear-gradient-16);}.cls-11{fill:url(#linear-gradient-17);}.cls-12{fill:url(#linear-gradient-18);}.cls-13{fill:url(#linear-gradient-19);}.cls-14{fill:url(#linear-gradient-20);}.cls-15{fill:url(#linear-gradient-21);}.cls-16{fill:url(#linear-gradient-22);}.cls-17{fill:url(#linear-gradient-23);}.cls-18{fill:url(#linear-gradient-30);}.cls-19{fill:url(#linear-gradient-32);}.cls-20{fill:url(#linear-gradient-33);}.cls-21{fill:url(#linear-gradient-41);}.cls-22{fill:url(#linear-gradient-42);}.cls-23{fill:url(#linear-gradient-44);}.cls-24{fill:url(#linear-gradient-46);}.cls-25{fill:url(#linear-gradient-48);}.cls-26{fill:url(#linear-gradient-53);}</style><linearGradient id="linear-gradient" x1="-43.92" y1="366.38" x2="639.01" y2="366.38" gradientUnits="userSpaceOnUse"><stop offset="0" stop-color="#cc952f"/><stop offset="0.07" stop-color="#dbae46"/><stop offset="0.16" stop-color="#e9c65b"/><stop offset="0.24" stop-color="#f2d469"/><stop offset="0.31" stop-color="#f5d96d"/><stop offset="0.44" stop-color="#e9c55b"/><stop offset="0.66" stop-color="#d9ab43"/><stop offset="0.85" stop-color="#cf9b34"/><stop offset="1" stop-color="#cc952f"/></linearGradient><linearGradient id="linear-gradient-4" x1="-43.92" y1="366.38" x2="639.01" y2="366.38" xlink:href="#linear-gradient"/><linearGradient id="linear-gradient-9" x1="-43.92" y1="154.38" x2="639.01" y2="154.38" xlink:href="#linear-gradient"/><linearGradient id="linear-gradient-10" x1="-43.92" y1="57.94" x2="639.01" y2="57.94" xlink:href="#linear-gradient"/><linearGradient id="linear-gradient-11" x1="-43.92" y1="88.36" x2="639.01" y2="88.36" xlink:href="#linear-gradient"/><linearGradient id="linear-gradient-12" x1="-43.92" y1="112.34" x2="639.01" y2="112.34" xlink:href="#linear-gradient"/><linearGradient id="linear-gradient-13" x1="-43.92" y1="260.98" x2="639.01" y2="260.98" xlink:href="#linear-gradient"/><linearGradient id="linear-gradient-15" x1="-43.92" y1="259.74" x2="639.01" y2="259.74" xlink:href="#linear-gradient"/><linearGradient id="linear-gradient-16" x1="-43.92" y1="174.54" x2="639.01" y2="174.54" xlink:href="#linear-gradient"/><linearGradient id="linear-gradient-17" x1="-43.92" y1="23.41" x2="639.01" y2="23.41" xlink:href="#linear-gradient"/><linearGradient id="linear-gradient-18" x1="-43.92" y1="129.95" x2="639.01" y2="129.95" xlink:href="#linear-gradient"/><linearGradient id="linear-gradient-19" x1="-43.92" y1="136.37" x2="639.01" y2="136.37" xlink:href="#linear-gradient"/><linearGradient id="linear-gradient-20" x1="-43.92" y1="105.29" x2="639.01" y2="105.29" xlink:href="#linear-gradient"/><linearGradient id="linear-gradient-21" x1="-43.92" y1="43.22" x2="639.01" y2="43.22" xlink:href="#linear-gradient"/><linearGradient id="linear-gradient-22" x1="-43.92" y1="77.98" x2="639.01" y2="77.98" xlink:href="#linear-gradient"/><linearGradient id="linear-gradient-23" x1="-43.92" y1="261.72" x2="639.01" y2="261.72" xlink:href="#linear-gradient"/><linearGradient id="linear-gradient-30" x1="-43.92" y1="233.46" x2="639.01" y2="233.46" xlink:href="#linear-gradient"/><linearGradient id="linear-gradient-32" x1="-43.92" y1="193.21" x2="639.01" y2="193.21" xlink:href="#linear-gradient"/><linearGradient id="linear-gradient-33" x1="-43.92" y1="224.63" x2="639.01" y2="224.63" xlink:href="#linear-gradient"/><linearGradient id="linear-gradient-41" x1="-43.92" y1="174.54" x2="639.01" y2="174.54" xlink:href="#linear-gradient"/><linearGradient id="linear-gradient-42" x1="-43.92" y1="138.46" x2="639.01" y2="138.46" xlink:href="#linear-gradient"/><linearGradient id="linear-gradient-44" x1="-43.92" y1="138.46" x2="639.01" y2="138.46" xlink:href="#linear-gradient"/><linearGradient id="linear-gradient-46" x1="-25.72" y1="466.25" x2="578.74" y2="466.25" xlink:href="#linear-gradient"/><linearGradient id="linear-gradient-48" x1="-25.72" y1="466.56" x2="578.74" y2="466.56" xlink:href="#linear-gradient"/><linearGradient id="linear-gradient-53" x1="-25.72" y1="466.42" x2="578.74" y2="466.42" xlink:href="#linear-gradient"/></defs><g id="Calque_2" data-name="Calque 2"><g id="Layer_1" data-name="Layer 1"><path class="cls-1" d="M42.4,319.72H0v.66c7.6,0,8.4,4.8,8.4,14.67v62.66c0,9.73-.8,14.66-8.4,14.66V413H37.46v-.67c-7.6,0-8.26-4.93-8.4-14.66V372.65h12c14.53,0,31.07-7.34,31.07-26.4S55.33,319.72,42.4,319.72ZM39.2,372H29.06V335.05c.14-9.87.8-14.67,8.4-14.67H39.2c7.73,0,10.93,13.47,10.93,25.87S49.2,372,39.2,372Z"/><path class="cls-2" d="M42.4,319.72H0v.66c7.6,0,8.4,4.8,8.4,14.67v62.66c0,9.73-.8,14.66-8.4,14.66V413H37.46v-.67c-7.6,0-8.26-4.93-8.4-14.66V372.65h12c14.53,0,31.07-7.34,31.07-26.4S55.33,319.72,42.4,319.72ZM39.2,372H29.06V335.05c.14-9.87.8-14.67,8.4-14.67H39.2c7.73,0,10.93,13.47,10.93,25.87S49.2,372,39.2,372Z"/><path class="cls-1" d="M151.85,392.38c-5.87-13.07-9.74-23.33-25.07-26.4,12.8-1.47,25.33-7.73,25.33-23.07,0-17.46-16.79-23.19-29.73-23.19H80.12v.66c7.6,0,8.4,4.8,8.4,14.67v62.66c0,9.73-.8,14.66-8.4,14.66V413h37.46v-.67c-7.6,0-8.26-4.93-8.4-14.66V366.24h4.54c13.73.81,11.06,27.87,22.66,40.93,5.07,5.87,15.47,5.87,21.33,5.87h14.13v-.67C162.51,412.37,155.71,400.91,151.85,392.38Zm-32.54-26.8H109.18V335.05c.14-9.87.8-14.67,8.4-14.67h1.73c7.6,0,10.94,11.87,10.94,22.53S129.18,365.58,119.31,365.58Z"/><path class="cls-2" d="M151.85,392.38c-5.87-13.07-9.74-23.33-25.07-26.4,12.8-1.47,25.33-7.73,25.33-23.07,0-17.46-16.79-23.19-29.73-23.19H80.12v.66c7.6,0,8.4,4.8,8.4,14.67v62.66c0,9.73-.8,14.66-8.4,14.66V413h37.46v-.67c-7.6,0-8.26-4.93-8.4-14.66V366.24h4.54c13.73.81,11.06,27.87,22.66,40.93,5.07,5.87,15.47,5.87,21.33,5.87h14.13v-.67C162.51,412.37,155.71,400.91,151.85,392.38Zm-32.54-26.8H109.18V335.05c.14-9.87.8-14.67,8.4-14.67h1.73c7.6,0,10.94,11.87,10.94,22.53S129.18,365.58,119.31,365.58Z"/><path class="cls-1" d="M214,320.38v-.66H176.5v.66c7.6,0,8.27,4.94,8.4,14.67v62.66c-.13,9.86-.8,14.66-8.4,14.66V413H214v-.67c-7.6,0-8.4-4.8-8.4-14.66V335.05C205.57,325.32,206.37,320.38,214,320.38Z"/><path class="cls-2" d="M214,320.38v-.66H176.5v.66c7.6,0,8.27,4.94,8.4,14.67v62.66c-.13,9.86-.8,14.66-8.4,14.66V413H214v-.67c-7.6,0-8.4-4.8-8.4-14.66V335.05C205.57,325.32,206.37,320.38,214,320.38Z"/><path class="cls-1" d="M286,386c0-29.47-44.93-31.33-44.93-53.06,0-6.8,4.27-13.87,12.94-13.87,15.86,0,24.93,13.87,24.93,30h.66V314.78h-.66c0,7.47-2.67,8.8-7.47,7.47-5.86-1.6-10.26-3.87-17.73-3.87-18.13,0-31.06,10.8-31.06,26.67,0,31.2,44,29.6,44,54.79,0,6.13-3.86,13.87-15.6,13.87-20.93,0-28.39-22.27-28.39-30H222V418h.67c0-9.06,6.8-7.33,11.33-6.13a66.56,66.56,0,0,0,17.46,2.53C273.69,414.37,286,402.11,286,386Z"/><path class="cls-3" d="M286,386c0-29.47-44.93-31.33-44.93-53.06,0-6.8,4.27-13.87,12.94-13.87,15.86,0,24.93,13.87,24.93,30h.66V314.78h-.66c0,7.47-2.67,8.8-7.47,7.47-5.86-1.6-10.26-3.87-17.73-3.87-18.13,0-31.06,10.8-31.06,26.67,0,31.2,44,29.6,44,54.79,0,6.13-3.86,13.87-15.6,13.87-20.93,0-28.39-22.27-28.39-30H222V418h.67c0-9.06,6.8-7.33,11.33-6.13a66.56,66.56,0,0,0,17.46,2.53C273.69,414.37,286,402.11,286,386Z"/><path class="cls-1" d="M292.48,319.72,290,340.38h.66c3.87-8.66,9.47-19.86,22.54-20,7.33.14,8.13,4.94,8.13,14.67v62.66c0,9.73-.8,14.66-8.4,14.66V413h37.46v-.67c-7.6,0-8.26-4.93-8.4-14.66V335.05c.14-9.73.8-14.53,8.14-14.67,13.06.14,18.8,11.34,22.53,20h.67l-2.54-20.66Z"/><path class="cls-2" d="M292.48,319.72,290,340.38h.66c3.87-8.66,9.47-19.86,22.54-20,7.33.14,8.13,4.94,8.13,14.67v62.66c0,9.73-.8,14.66-8.4,14.66V413h37.46v-.67c-7.6,0-8.26-4.93-8.4-14.66V335.05c.14-9.73.8-14.53,8.14-14.67,13.06.14,18.8,11.34,22.53,20h.67l-2.54-20.66Z"/><path class="cls-1" d="M418.73,320.38v-.66H381.27v.66c7.6,0,8.26,4.94,8.4,14.67v62.66c-.14,9.86-.8,14.66-8.4,14.66V413h37.46v-.67c-7.6,0-8.4-4.8-8.4-14.66V335.05C410.33,325.32,411.13,320.38,418.73,320.38Z"/><path class="cls-2" d="M418.73,320.38v-.66H381.27v.66c7.6,0,8.26,4.94,8.4,14.67v62.66c-.14,9.86-.8,14.66-8.4,14.66V413h37.46v-.67c-7.6,0-8.4-4.8-8.4-14.66V335.05C410.33,325.32,411.13,320.38,418.73,320.38Z"/><path class="cls-1" d="M491,320.38c9.07,0,16.54,9.34,16.54,25.2V385l-50.13-65.32H426.33v.66c5.73,0,11.06,6.14,15.59,12.54v54.26c0,15.86-7.46,25.19-16.53,25.19V413H459v-.67c-9.07,0-16.4-9.33-16.4-25.19V333.85c2,2.93,58.79,75.72,61.73,79.19h3.86V345.58c0-15.86,7.34-25.2,16.4-25.2v-.66H491Z"/><path class="cls-2" d="M491,320.38c9.07,0,16.54,9.34,16.54,25.2V385l-50.13-65.32H426.33v.66c5.73,0,11.06,6.14,15.59,12.54v54.26c0,15.86-7.46,25.19-16.53,25.19V413H459v-.67c-9.07,0-16.4-9.33-16.4-25.19V333.85c2,2.93,58.79,75.72,61.73,79.19h3.86V345.58c0-15.86,7.34-25.2,16.4-25.2v-.66H491Z"/><path class="cls-1" d="M531.24,320.38c7.6,0,8.27,4.94,8.4,14.67v62.66c-.13,9.86-.8,14.66-8.4,14.66V413H568.7v-.67c-7.6,0-8.39-4.8-8.39-14.66V335.05c0-9.73.79-14.67,8.39-14.67v-.66H531.24Z"/><path class="cls-2" d="M531.24,320.38c7.6,0,8.27,4.94,8.4,14.67v62.66c-.13,9.86-.8,14.66-8.4,14.66V413H568.7v-.67c-7.6,0-8.39-4.8-8.39-14.66V335.05c0-9.73.79-14.67,8.39-14.67v-.66H531.24Z"/><path class="cls-1" d="M445.92,133.75c-17,23.81-24.29,11.57-27.41,40a119.34,119.34,0,0,1,9.84-15.33c5.35-7.17,13.42-11.25,16.35-21.38-1.66,10.15-9.47,15-15.22,22.47a101.44,101.44,0,0,0-10,15.47C433,168.57,445.64,156.46,445.92,133.75Z"/><path class="cls-4" d="M445.92,133.75c-17,23.81-24.29,11.57-27.41,40a119.34,119.34,0,0,1,9.84-15.33c5.35-7.17,13.42-11.25,16.35-21.38-1.66,10.15-9.47,15-15.22,22.47a101.44,101.44,0,0,0-10,15.47C433,168.57,445.64,156.46,445.92,133.75Z"/><path class="cls-1" d="M392.65,33.22c17.47,23,13.77,37.12,31.71,49.44a105.75,105.75,0,0,1-7-11.8c-2.38-4.86-12-23.73-17.08-29.19,6.34,5.88,16.49,25.11,18.3,28.67a102.34,102.34,0,0,0,6.91,11.82C425.89,70.34,408.56,44.53,392.65,33.22Z"/><path class="cls-5" d="M392.65,33.22c17.47,23,13.77,37.12,31.71,49.44a105.75,105.75,0,0,1-7-11.8c-2.38-4.86-12-23.73-17.08-29.19,6.34,5.88,16.49,25.11,18.3,28.67a102.34,102.34,0,0,0,6.91,11.82C425.89,70.34,408.56,44.53,392.65,33.22Z"/><path class="cls-1" d="M420.15,92.37a101.06,101.06,0,0,0,8.9,10.41c-1.74-11.69-8-23.89-24.91-29.55,13.14,17.61,4,21.31,23.85,30.25A107.4,107.4,0,0,1,419,93.1c-3.2-4.36-4.91-12.28-10.9-16.74C415.42,81,417.73,89.2,420.15,92.37Z"/><path class="cls-6" d="M420.15,92.37a101.06,101.06,0,0,0,8.9,10.41c-1.74-11.69-8-23.89-24.91-29.55,13.14,17.61,4,21.31,23.85,30.25A107.4,107.4,0,0,1,419,93.1c-3.2-4.36-4.91-12.28-10.9-16.74C415.42,81,417.73,89.2,420.15,92.37Z"/><path class="cls-1" d="M427.72,129.57C429,117.81,426,104.43,411,94.7c8.29,20.35-1.48,21.63,15.48,35.28a106.06,106.06,0,0,1-6.06-12.3c-2-5-1.66-13.12-6.33-18.94,5.87,6.34,6.05,14.84,7.59,18.51A101.5,101.5,0,0,0,427.72,129.57Z"/><path class="cls-7" d="M427.72,129.57C429,117.81,426,104.43,411,94.7c8.29,20.35-1.48,21.63,15.48,35.28a106.06,106.06,0,0,1-6.06-12.3c-2-5-1.66-13.12-6.33-18.94,5.87,6.34,6.05,14.84,7.59,18.51A101.5,101.5,0,0,0,427.72,129.57Z"/><path class="cls-1" d="M258.28,250.79c-2.43-.34-4.86-.72-7.25-1.14-.94,7.54-2.85,15.85-9.87,22.46C251.43,274.32,256.75,257.25,258.28,250.79Z"/><path class="cls-8" d="M258.28,250.79c-2.43-.34-4.86-.72-7.25-1.14-.94,7.54-2.85,15.85-9.87,22.46C251.43,274.32,256.75,257.25,258.28,250.79Z"/><path class="cls-1" d="M326.69,272.11c-7-6.61-8.94-14.92-9.88-22.46-2.38.42-4.82.8-7.25,1.14C311.09,257.25,316.42,274.32,326.69,272.11Z"/><path class="cls-8" d="M326.69,272.11c-7-6.61-8.94-14.92-9.88-22.46-2.38.42-4.82.8-7.25,1.14C311.09,257.25,316.42,274.32,326.69,272.11Z"/><path class="cls-1" d="M232.61,271.52c8.2-4.51,13.66-14.32,14.68-22.57-1.91-.39-3.76-.81-5.51-1.25a40.78,40.78,0,0,1-15.86,23C226.84,271.28,231.31,272.24,232.61,271.52Z"/><path class="cls-9" d="M232.61,271.52c8.2-4.51,13.66-14.32,14.68-22.57-1.91-.39-3.76-.81-5.51-1.25a40.78,40.78,0,0,1-15.86,23C226.84,271.28,231.31,272.24,232.61,271.52Z"/><path class="cls-1" d="M399.46,180.43c5.24-9.27,11.12-12.21,13.6-25.14-1.42,13.87-8.63,19.06-12.5,26.49-5.26,10.08-8.31,16.1-8.13,16,13.24-8.33,25.39-22.56,21.16-46.44-12.81,27.8-20.5,14.78-22.31,45.62C391.27,197.13,394.42,189.33,399.46,180.43Z"/><path class="cls-10" d="M399.46,180.43c5.24-9.27,11.12-12.21,13.6-25.14-1.42,13.87-8.63,19.06-12.5,26.49-5.26,10.08-8.31,16.1-8.13,16,13.24-8.33,25.39-22.56,21.16-46.44-12.81,27.8-20.5,14.78-22.31,45.62C391.27,197.13,394.42,189.33,399.46,180.43Z"/><path class="cls-1" d="M411.19,46.83c.11.06-7.85-11.41-14.91-20.29C390.38,19.11,383.67,11,378.46,7c3.06,2,11.6,10.62,18.76,19s15,20.12,15,20.07C410.9,32.33,387.06,8.46,369.46,0,390.58,19.67,399.07,39.47,411.19,46.83Z"/><path class="cls-11" d="M411.19,46.83c.11.06-7.85-11.41-14.91-20.29C390.38,19.11,383.67,11,378.46,7c3.06,2,11.6,10.62,18.76,19s15,20.12,15,20.07C410.9,32.33,387.06,8.46,369.46,0,390.58,19.67,399.07,39.47,411.19,46.83Z"/><path class="cls-1" d="M426.8,146.71a107.84,107.84,0,0,1,5.77-12.43c2.66-4.72,9.17-9.54,10.77-16.83-1.25,8.55-7.75,14-9.65,17.54a100.59,100.59,0,0,0-5.81,12.4c9.93-6.4,18.48-17.12,16.67-34.87C433.91,131.75,426.78,124.94,426.8,146.71Z"/><path class="cls-12" d="M426.8,146.71a107.84,107.84,0,0,1,5.77-12.43c2.66-4.72,9.17-9.54,10.77-16.83-1.25,8.55-7.75,14-9.65,17.54a100.59,100.59,0,0,0-5.81,12.4c9.93-6.4,18.48-17.12,16.67-34.87C433.91,131.75,426.78,124.94,426.8,146.71Z"/><path class="cls-1" d="M421.56,155.11c3.75-11.21,3.72-24.92-8.79-37.63,3.71,21.66-6.1,20.79,7.52,37.77A106.37,106.37,0,0,1,417,141.94c-.88-5.34,1.2-13.17-2.12-19.86,4.37,7.45,2.72,15.79,3.43,19.72A100.3,100.3,0,0,0,421.56,155.11Z"/><path class="cls-13" d="M421.56,155.11c3.75-11.21,3.72-24.92-8.79-37.63,3.71,21.66-6.1,20.79,7.52,37.77A106.37,106.37,0,0,1,417,141.94c-.88-5.34,1.2-13.17-2.12-19.86,4.37,7.45,2.72,15.79,3.43,19.72A100.3,100.3,0,0,0,421.56,155.11Z"/><path class="cls-1" d="M431.22,124a105.75,105.75,0,0,1,2.21-13.53c1.29-5.26,6.26-11.65,5.84-19.11,1.09,8.58-3.69,15.6-4.57,19.49a104.16,104.16,0,0,0-2.27,13.51c7.85-8.84,13.19-21.47,6.68-38.07C434,107.63,425.34,103,431.22,124Z"/><path class="cls-14" d="M431.22,124a105.75,105.75,0,0,1,2.21-13.53c1.29-5.26,6.26-11.65,5.84-19.11,1.09,8.58-3.69,15.6-4.57,19.49a104.16,104.16,0,0,0-2.27,13.51c7.85-8.84,13.19-21.47,6.68-38.07C434,107.63,425.34,103,431.22,124Z"/><path class="cls-1" d="M419.38,50c-3.27-8.91-7.08-18.73-10.78-24.13,2.27,2.86,7.68,13.73,11.82,24s7,19.87,7.05,19.82c4.21-13.83-11.15-39.74-25.19-53.31,13.85,25.31,13.12,41.41,24,53.63C426.32,70.13,423.29,60.69,419.38,50Z"/><path class="cls-15" d="M419.38,50c-3.27-8.91-7.08-18.73-10.78-24.13,2.27,2.86,7.68,13.73,11.82,24s7,19.87,7.05,19.82c4.21-13.83-11.15-39.74-25.19-53.31,13.85,25.31,13.12,41.41,24,53.63C426.32,70.13,423.29,60.69,419.38,50Z"/><path class="cls-1" d="M431.82,97.19a109.31,109.31,0,0,1-1.07-13.66c0-5.41,3.3-12.8,1.11-20,3.11,8.07.14,16,.21,20a101.11,101.11,0,0,0,1,13.66c5.51-10.47,7.68-24-2.6-38.57C430.67,80.67,421.12,78.24,431.82,97.19Z"/><path class="cls-16" d="M431.82,97.19a109.31,109.31,0,0,1-1.07-13.66c0-5.41,3.3-12.8,1.11-20,3.11,8.07.14,16,.21,20a101.11,101.11,0,0,0,1,13.66c5.51-10.47,7.68-24-2.6-38.57C430.67,80.67,421.12,78.24,431.82,97.19Z"/><path class="cls-1" d="M294.75,266.59a72.77,72.77,0,0,0,20.41,5.53c-4.62-5-8-13.14-9.74-20.8-8.64,1.06-16.75,1.6-21.5,1.78-4.74-.18-12.85-.72-21.49-1.78-1.79,7.66-5.12,15.76-9.74,20.8a75.76,75.76,0,0,0,20.49-5.57C282.72,262.37,285.69,262.49,294.75,266.59Z"/><path class="cls-17" d="M294.75,266.59a72.77,72.77,0,0,0,20.41,5.53c-4.62-5-8-13.14-9.74-20.8-8.64,1.06-16.75,1.6-21.5,1.78-4.74-.18-12.85-.72-21.49-1.78-1.79,7.66-5.12,15.76-9.74,20.8a75.76,75.76,0,0,0,20.49-5.57C282.72,262.37,285.69,262.49,294.75,266.59Z"/><path class="cls-1" d="M134,110.81c-.88-3.89-5.66-10.91-4.57-19.49-.42,7.46,4.55,13.85,5.84,19.11A105.75,105.75,0,0,1,137.48,124c5.88-21-2.81-16.33-7.88-37.71-6.52,16.6-1.18,29.23,6.66,38.07A99.22,99.22,0,0,0,134,110.81Z"/><path class="cls-14" d="M134,110.81c-.88-3.89-5.66-10.91-4.57-19.49-.42,7.46,4.55,13.85,5.84,19.11A105.75,105.75,0,0,1,137.48,124c5.88-21-2.81-16.33-7.88-37.71-6.52,16.6-1.18,29.23,6.66,38.07A99.22,99.22,0,0,0,134,110.81Z"/><path class="cls-1" d="M144.34,82.66c17.94-12.32,14.24-26.49,31.71-49.44-15.91,11.31-33.23,37.12-32.88,48.94a104.06,104.06,0,0,0,6.91-11.82c1.81-3.56,12-22.79,18.3-28.67-5.11,5.46-14.7,24.33-17.07,29.19A106.64,106.64,0,0,1,144.34,82.66Z"/><path class="cls-5" d="M144.34,82.66c17.94-12.32,14.24-26.49,31.71-49.44-15.91,11.31-33.23,37.12-32.88,48.94a104.06,104.06,0,0,0,6.91-11.82c1.81-3.56,12-22.79,18.3-28.67-5.11,5.46-14.7,24.33-17.07,29.19A106.64,106.64,0,0,1,144.34,82.66Z"/><path class="cls-1" d="M148.29,49.9c4.14-10.26,9.54-21.13,11.81-24-3.7,5.4-7.51,15.22-10.78,24.13-3.9,10.65-6.94,20.09-6.86,20,10.84-12.22,10.11-28.32,24-53.63C152.38,30,137,55.89,141.23,69.72,141.25,69.77,144.14,60.15,148.29,49.9Z"/><path class="cls-15" d="M148.29,49.9c4.14-10.26,9.54-21.13,11.81-24-3.7,5.4-7.51,15.22-10.78,24.13-3.9,10.65-6.94,20.09-6.86,20,10.84-12.22,10.11-28.32,24-53.63C152.38,30,137,55.89,141.23,69.72,141.25,69.77,144.14,60.15,148.29,49.9Z"/><path class="cls-1" d="M136.63,83.6c.07-4-2.9-11.95.21-20-2.19,7.15,1.11,14.54,1.11,20a109.31,109.31,0,0,1-1.07,13.66c10.7-19,1.15-16.52,1.33-38.5-10.29,14.58-8.12,28.1-2.61,38.57A101.11,101.11,0,0,0,136.63,83.6Z"/><path class="cls-16" d="M136.63,83.6c.07-4-2.9-11.95.21-20-2.19,7.15,1.11,14.54,1.11,20a109.31,109.31,0,0,1-1.07,13.66c10.7-19,1.15-16.52,1.33-38.5-10.29,14.58-8.12,28.1-2.61,38.57A101.11,101.11,0,0,0,136.63,83.6Z"/><path class="cls-1" d="M149.22,175a102.39,102.39,0,0,0-10-15.47c-5.75-7.46-13.56-12.32-15.22-22.47,2.93,10.13,11,14.21,16.35,21.38a119.34,119.34,0,0,1,9.84,15.33c-3.11-28.45-10.43-16.21-27.4-40C123.06,156.46,135.66,168.57,149.22,175Z"/><path class="cls-4" d="M149.22,175a102.39,102.39,0,0,0-10-15.47c-5.75-7.46-13.56-12.32-15.22-22.47,2.93,10.13,11,14.21,16.35,21.38a119.34,119.34,0,0,1,9.84,15.33c-3.11-28.45-10.43-16.21-27.4-40C123.06,156.46,135.66,168.57,149.22,175Z"/><path class="cls-1" d="M140.82,147.39A100.59,100.59,0,0,0,135,135c-1.9-3.51-8.4-9-9.65-17.54,1.6,7.29,8.12,12.11,10.77,16.83a105.81,105.81,0,0,1,5.77,12.43c0-21.77-7.11-15-17.74-34.19C122.34,130.27,130.89,141,140.82,147.39Z"/><path class="cls-12" d="M140.82,147.39A100.59,100.59,0,0,0,135,135c-1.9-3.51-8.4-9-9.65-17.54,1.6,7.29,8.12,12.11,10.77,16.83a105.81,105.81,0,0,1,5.77,12.43c0-21.77-7.11-15-17.74-34.19C122.34,130.27,130.89,141,140.82,147.39Z"/><path class="cls-1" d="M412.38,209.61c-3.69,3.8-17.33,21.15-34,27.27-13.95,5.12-22.74,16.62-25.91,18.44,2-1,11-6,19.29-10.32,12.4-6.47,23.11-8.36,32.62-23.52-4.37,12.2-13.67,17.69-24.26,22.77-.56.28,4.19,1.61,7.72,1.71-3.06,1.51-11.17-.08-12.05.34-6.5,3-13.28,6.22-19.58,10.9C386.56,258.88,405.49,242,412.38,209.61Z"/><path class="cls-18" d="M412.38,209.61c-3.69,3.8-17.33,21.15-34,27.27-13.95,5.12-22.74,16.62-25.91,18.44,2-1,11-6,19.29-10.32,12.4-6.47,23.11-8.36,32.62-23.52-4.37,12.2-13.67,17.69-24.26,22.77-.56.28,4.19,1.61,7.72,1.71-3.06,1.51-11.17-.08-12.05.34-6.5,3-13.28,6.22-19.58,10.9C386.56,258.88,405.49,242,412.38,209.61Z"/><path class="cls-1" d="M212.48,257.2c-6.3-4.68-13.08-7.87-19.57-10.9-.89-.42-9,1.17-12.06-.34,3.53-.1,8.28-1.43,7.72-1.71-10.59-5.08-19.89-10.57-24.26-22.77,9.51,15.16,20.22,17.05,32.62,23.52,8.28,4.32,17.33,9.31,19.29,10.32-3.16-1.82-12-13.32-25.91-18.44-16.66-6.12-30.3-23.47-34-27.27C163.22,242,182.15,258.88,212.48,257.2Z"/><path class="cls-18" d="M212.48,257.2c-6.3-4.68-13.08-7.87-19.57-10.9-.89-.42-9,1.17-12.06-.34,3.53-.1,8.28-1.43,7.72-1.71-10.59-5.08-19.89-10.57-24.26-22.77,9.51,15.16,20.22,17.05,32.62,23.52,8.28,4.32,17.33,9.31,19.29,10.32-3.16-1.82-12-13.32-25.91-18.44-16.66-6.12-30.3-23.47-34-27.27C163.22,242,182.15,258.88,212.48,257.2Z"/><path class="cls-1" d="M429.68,170.61c-2.7,6.06-7.49,12.4-15.34,18.1-10.84,7.89-11.09,6.9-21.08,16.75a74.84,74.84,0,0,1-10.5,8.48A143.61,143.61,0,0,0,409.22,200c8.69-5.91,18.24-11.52,20-23.87-.29,11.47-8.62,18.18-19.06,25.34-8.06,5.53-21.69,12.57-29,14.35C396.23,214.64,440,208,429.68,170.61Z"/><path class="cls-19" d="M429.68,170.61c-2.7,6.06-7.49,12.4-15.34,18.1-10.84,7.89-11.09,6.9-21.08,16.75a74.84,74.84,0,0,1-10.5,8.48A143.61,143.61,0,0,0,409.22,200c8.69-5.91,18.24-11.52,20-23.87-.29,11.47-8.62,18.18-19.06,25.34-8.06,5.53-21.69,12.57-29,14.35C396.23,214.64,440,208,429.68,170.61Z"/><path class="cls-1" d="M377.09,259c-19,3.68-31.42,2.45-39.57-8.33,14.93-1.85,25.65-8.12,33.39-17.55,11.15-13.63,10.79-33,16.26-51.52-10,8.25-14.62,24.23-25.15,39.79-6.43,9.5-14.5,18.58-25.75,24.85l-.21-2.06c-.59.29-1.21.59-1.88.87l-.1,0a45.23,45.23,0,0,1-4.52,1.62c3.07,11.47,10.51,17.4,18.39,20.07C356.47,269.68,364.58,265,377.09,259Zm-40.25-10.91c9.53-2.85,18.35-8.61,25.64-20.66a21.78,21.78,0,0,1-2.36,7.4,83.43,83.43,0,0,0,16.29-26.26c-1.28,12.18-5.67,21-12.41,27.28S347.79,246.05,336.84,248.09Z"/><path class="cls-20" d="M377.09,259c-19,3.68-31.42,2.45-39.57-8.33,14.93-1.85,25.65-8.12,33.39-17.55,11.15-13.63,10.79-33,16.26-51.52-10,8.25-14.62,24.23-25.15,39.79-6.43,9.5-14.5,18.58-25.75,24.85l-.21-2.06c-.59.29-1.21.59-1.88.87l-.1,0a45.23,45.23,0,0,1-4.52,1.62c3.07,11.47,10.51,17.4,18.39,20.07C356.47,269.68,364.58,265,377.09,259Zm-40.25-10.91c9.53-2.85,18.35-8.61,25.64-20.66a21.78,21.78,0,0,1-2.36,7.4,83.43,83.43,0,0,0,16.29-26.26c-1.28,12.18-5.67,21-12.41,27.28S347.79,246.05,336.84,248.09Z"/><path class="cls-1" d="M219.89,266.79c7.88-2.67,15.33-8.6,18.4-20.07a44.35,44.35,0,0,1-4.52-1.62l-.11,0c-.66-.28-1.29-.58-1.87-.87l-.22,2.06c-11.24-6.27-19.31-15.35-25.74-24.85-10.53-15.56-15.15-31.54-25.16-39.79,5.47,18.5,5.11,37.89,16.27,51.52,7.73,9.43,18.45,15.7,33.39,17.55-8.16,10.78-20.6,12-39.58,8.33C203.27,265,211.38,269.68,219.89,266.79Zm-16-30.94c-6.74-6.29-11.14-15.1-12.42-27.28a83.44,83.44,0,0,0,16.3,26.26,22,22,0,0,1-2.37-7.4c7.29,12,16.11,17.81,25.64,20.66C220.05,246.05,210.73,242.27,203.85,235.85Z"/><path class="cls-20" d="M219.89,266.79c7.88-2.67,15.33-8.6,18.4-20.07a44.35,44.35,0,0,1-4.52-1.62l-.11,0c-.66-.28-1.29-.58-1.87-.87l-.22,2.06c-11.24-6.27-19.31-15.35-25.74-24.85-10.53-15.56-15.15-31.54-25.16-39.79,5.47,18.5,5.11,37.89,16.27,51.52,7.73,9.43,18.45,15.7,33.39,17.55-8.16,10.78-20.6,12-39.58,8.33C203.27,265,211.38,269.68,219.89,266.79Zm-16-30.94c-6.74-6.29-11.14-15.1-12.42-27.28a83.44,83.44,0,0,0,16.3,26.26,22,22,0,0,1-2.37-7.4c7.29,12,16.11,17.81,25.64,20.66C220.05,246.05,210.73,242.27,203.85,235.85Z"/><path class="cls-1" d="M142.18,130c17-13.65,7.19-14.93,15.48-35.28-15,9.73-17.94,23.11-16.68,34.87a101.5,101.5,0,0,0,6-12.32c1.54-3.67,1.73-12.17,7.6-18.51-4.68,5.82-4.34,13.91-6.34,18.94A108,108,0,0,1,142.18,130Z"/><path class="cls-7" d="M142.18,130c17-13.65,7.19-14.93,15.48-35.28-15,9.73-17.94,23.11-16.68,34.87a101.5,101.5,0,0,0,6-12.32c1.54-3.67,1.73-12.17,7.6-18.51-4.68,5.82-4.34,13.91-6.34,18.94A108,108,0,0,1,142.18,130Z"/><path class="cls-1" d="M148.41,155.25c13.62-17,3.81-16.11,7.52-37.77-12.51,12.71-12.54,26.42-8.79,37.63a100.3,100.3,0,0,0,3.22-13.31c.71-3.93-.94-12.27,3.43-19.72-3.31,6.69-1.24,14.52-2.12,19.86A106.37,106.37,0,0,1,148.41,155.25Z"/><path class="cls-13" d="M148.41,155.25c13.62-17,3.81-16.11,7.52-37.77-12.51,12.71-12.54,26.42-8.79,37.63a100.3,100.3,0,0,0,3.22-13.31c.71-3.93-.94-12.27,3.43-19.72-3.31,6.69-1.24,14.52-2.12,19.86A106.37,106.37,0,0,1,148.41,155.25Z"/><path class="cls-1" d="M149.66,93.1a105.78,105.78,0,0,1-8.95,10.38c19.84-8.94,10.71-12.64,23.85-30.25-16.92,5.66-23.17,17.86-24.91,29.55a101.06,101.06,0,0,0,8.9-10.41c2.42-3.17,4.73-11.35,12-16C154.57,80.82,152.86,88.74,149.66,93.1Z"/><path class="cls-6" d="M149.66,93.1a105.78,105.78,0,0,1-8.95,10.38c19.84-8.94,10.71-12.64,23.85-30.25-16.92,5.66-23.17,17.86-24.91,29.55a101.06,101.06,0,0,0,8.9-10.41c2.42-3.17,4.73-11.35,12-16C154.57,80.82,152.86,88.74,149.66,93.1Z"/><path class="cls-1" d="M139,170.61c-10.29,37.39,33.46,44,48.48,45.21-7.3-1.78-20.93-8.82-29-14.35-10.44-7.16-18.78-13.87-19.06-25.34,1.81,12.35,11.35,18,20,23.87a143.61,143.61,0,0,0,26.46,13.94,74.84,74.84,0,0,1-10.5-8.48c-10-9.85-10.24-8.86-21.08-16.75C146.51,183,141.72,176.67,139,170.61Z"/><path class="cls-19" d="M139,170.61c-10.29,37.39,33.46,44,48.48,45.21-7.3-1.78-20.93-8.82-29-14.35-10.44-7.16-18.78-13.87-19.06-25.34,1.81,12.35,11.35,18,20,23.87a143.61,143.61,0,0,0,26.46,13.94,74.84,74.84,0,0,1-10.5-8.48c-10-9.85-10.24-8.86-21.08-16.75C146.51,183,141.72,176.67,139,170.61Z"/><path class="cls-1" d="M335.23,271.52c1.31.72,5.77-.24,6.69-.85a40.82,40.82,0,0,1-15.86-23c-1.75.44-3.6.86-5.5,1.25C321.58,257.2,327,267,335.23,271.52Z"/><path class="cls-9" d="M335.23,271.52c1.31.72,5.77-.24,6.69-.85a40.82,40.82,0,0,1-15.86-23c-1.75.44-3.6.86-5.5,1.25C321.58,257.2,327,267,335.23,271.52Z"/><path class="cls-1" d="M171.48,26.07c7.16-8.42,15.7-17,18.76-19-5.2,4-11.92,12.08-17.82,19.51-7.06,8.88-15,20.35-14.91,20.29C169.63,39.47,178.12,19.67,199.24,0c-17.6,8.46-41.44,32.33-42.8,46.14C156.44,46.19,164.32,34.5,171.48,26.07Z"/><path class="cls-11" d="M171.48,26.07c7.16-8.42,15.7-17,18.76-19-5.2,4-11.92,12.08-17.82,19.51-7.06,8.88-15,20.35-14.91,20.29C169.63,39.47,178.12,19.67,199.24,0c-17.6,8.46-41.44,32.33-42.8,46.14C156.44,46.19,164.32,34.5,171.48,26.07Z"/><path class="cls-1" d="M176.27,197.76c.18.12-2.87-5.9-8.13-16-3.87-7.42-11.08-12.62-12.5-26.49,2.48,12.93,8.36,15.87,13.61,25.14,5,8.9,8.18,16.7,8.17,16.51-1.81-30.84-9.5-17.82-22.31-45.62C150.89,175.2,163,189.43,176.27,197.76Z"/><path class="cls-21" d="M176.27,197.76c.18.12-2.87-5.9-8.13-16-3.87-7.42-11.08-12.62-12.5-26.49,2.48,12.93,8.36,15.87,13.61,25.14,5,8.9,8.18,16.7,8.17,16.51-1.81-30.84-9.5-17.82-22.31-45.62C150.89,175.2,163,189.43,176.27,197.76Z"/><path class="cls-1" d="M279.09,230.16l5.37,2.33,5.37-2.33c29.94-13,52.5-33.6,67.06-61.27,12.94-24.58,19.19-54,18.59-87.55l-.22-11.91-11.84-1.27c-27.6-2.94-52.09-9.85-72.77-20.54l-6.19-3.19-6.19,3.19c-20.69,10.69-45.18,17.6-72.78,20.54l-11.84,1.27-.21,11.9c-.61,33.52,5.64,63,18.58,87.56C226.58,196.56,249.15,217.17,279.09,230.16ZM197.93,81.42l.14-7.94,7.9-.85c28.16-3,53.17-10.07,74.36-21l4.13-2.13,4.13,2.13c21.18,10.94,46.19,18,74.35,21l7.9.85.14,7.94c.59,32.75-5.49,61.48-18.07,85.38C338.84,193.53,317,213.46,288,226l-3.58,1.56L280.88,226c-29-12.57-50.81-32.5-64.88-59.23C203.42,142.9,197.34,114.17,197.93,81.42Z"/><path class="cls-22" d="M279.09,230.16l5.37,2.33,5.37-2.33c29.94-13,52.5-33.6,67.06-61.27,12.94-24.58,19.19-54,18.59-87.55l-.22-11.91-11.84-1.27c-27.6-2.94-52.09-9.85-72.77-20.54l-6.19-3.19-6.19,3.19c-20.69,10.69-45.18,17.6-72.78,20.54l-11.84,1.27-.21,11.9c-.61,33.52,5.64,63,18.58,87.56C226.58,196.56,249.15,217.17,279.09,230.16ZM197.93,81.42l.14-7.94,7.9-.85c28.16-3,53.17-10.07,74.36-21l4.13-2.13,4.13,2.13c21.18,10.94,46.19,18,74.35,21l7.9.85.14,7.94c.59,32.75-5.49,61.48-18.07,85.38C338.84,193.53,317,213.46,288,226l-3.58,1.56L280.88,226c-29-12.57-50.81-32.5-64.88-59.23C203.42,142.9,197.34,114.17,197.93,81.42Z"/><path class="cls-1" d="M183.53,61.73,183.29,75c-.67,37.25,6.28,70,20.66,97.32,16.18,30.74,41.26,53.65,74.54,68.09l6,2.59,6-2.59C323.7,225.94,348.78,203,365,172.29,379.35,145,386.3,112.22,385.62,75l-.24-13.24-13.16-1.4c-30.68-3.28-57.89-11-80.88-22.83L284.46,34l-6.89,3.55c-23,11.87-50.2,19.55-80.88,22.83Zm96.34-19.79,4.59-2.37L289,41.94c23.55,12.16,51.35,20,82.65,23.36l8.78.93.15,8.83c.66,36.4-6.09,68.33-20.08,94.9-15.64,29.71-39.9,51.86-72.1,65.83l-4,1.73-4-1.73c-32.21-14-56.47-36.12-72.11-65.83-14-26.57-20.74-58.5-20.08-94.9l.16-8.83,8.77-.93C228.52,62,256.32,54.1,279.87,41.94Z"/><path class="cls-22" d="M183.53,61.73,183.29,75c-.67,37.25,6.28,70,20.66,97.32,16.18,30.74,41.26,53.65,74.54,68.09l6,2.59,6-2.59C323.7,225.94,348.78,203,365,172.29,379.35,145,386.3,112.22,385.62,75l-.24-13.24-13.16-1.4c-30.68-3.28-57.89-11-80.88-22.83L284.46,34l-6.89,3.55c-23,11.87-50.2,19.55-80.88,22.83Zm96.34-19.79,4.59-2.37L289,41.94c23.55,12.16,51.35,20,82.65,23.36l8.78.93.15,8.83c.66,36.4-6.09,68.33-20.08,94.9-15.64,29.71-39.9,51.86-72.1,65.83l-4,1.73-4-1.73c-32.21-14-56.47-36.12-72.11-65.83-14-26.57-20.74-58.5-20.08-94.9l.16-8.83,8.77-.93C228.52,62,256.32,54.1,279.87,41.94Z"/><path class="cls-1" d="M282.67,221.75l1.79.77,1.79-.77c28-12.16,49.1-31.4,62.68-57.21,12.23-23.22,18.13-51.22,17.55-83.2l-.07-4-4-.42c-28.71-3.07-54.26-10.29-75.94-21.49l-2.06-1.07-2.07,1.07C260.71,66.65,235.16,73.88,206.45,77l-3.95.42-.07,4c-.58,32,5.33,60,17.55,83.2C233.56,190.35,254.65,209.59,282.67,221.75ZM206.93,81.42c26.8-2.86,53.51-9.56,77.53-22,24,12.41,50.72,19.11,77.53,22,1.07,59.15-20.65,111.53-77.53,136.2C227.58,193,205.86,140.57,206.93,81.42Z"/><path class="cls-23" d="M282.67,221.75l1.79.77,1.79-.77c28-12.16,49.1-31.4,62.68-57.21,12.23-23.22,18.13-51.22,17.55-83.2l-.07-4-4-.42c-28.71-3.07-54.26-10.29-75.94-21.49l-2.06-1.07-2.07,1.07C260.71,66.65,235.16,73.88,206.45,77l-3.95.42-.07,4c-.58,32,5.33,60,17.55,83.2C233.56,190.35,254.65,209.59,282.67,221.75ZM206.93,81.42c26.8-2.86,53.51-9.56,77.53-22,24,12.41,50.72,19.11,77.53,22,1.07,59.15-20.65,111.53-77.53,136.2C227.58,193,205.86,140.57,206.93,81.42Z"/><path class="cls-1" d="M285.56,174.61c-6,0-6.5-3.87-6.61-11.52V143.38h9.44c11.42,0,24.42-5.76,24.42-20.75s-13.21-20.85-23.38-20.85H256.11v.52c6,0,6.6,3.77,6.6,11.53v49.26c0,7.65-.63,11.52-6.6,11.52v.53h29.45ZM279,115c.11-6.76.63-10,6.61-10h1.36c6.08,0,8.59,9.22,8.59,17.71s-.73,17.62-8.59,17.62h-8Z"/><path class="cls-23" d="M285.56,174.61c-6,0-6.5-3.87-6.61-11.52V143.38h9.44c11.42,0,24.42-5.76,24.42-20.75s-13.21-20.85-23.38-20.85H256.11v.52c6,0,6.6,3.77,6.6,11.53v49.26c0,7.65-.63,11.52-6.6,11.52v.53h29.45ZM279,115c.11-6.76.63-10,6.61-10h1.36c6.08,0,8.59,9.22,8.59,17.71s-.73,17.62-8.59,17.62h-8Z"/><path class="cls-24" d="M48.87,486.65,27.54,440.88H25.33L6.56,486.65c-.9,2.21-2.21,3.1-6.56,4.21v.76H13.6v-.76c-4.28-.9-6.07-1.66-6.07-3a3.52,3.52,0,0,1,.27-1.1l4.28-10.43H32.65l4.56,10.36a3.47,3.47,0,0,1,.34,1.24c0,1.31-1.45,2.07-4.9,3v.76H55.29v-.76C50.81,489.75,49.91,488.86,48.87,486.65ZM12.56,475.12l9.25-22.64h.28l10,22.64Z"/><path class="cls-24" d="M58.61,441.64c4.35.83,5.18,1.45,5.18,3.45v42.32c0,2-.83,2.62-5.18,3.45v.76H79.87v-.76c-4.35-.83-5.11-1.45-5.11-3.45V445.09c0-2,.76-2.62,5.11-3.45v-.76H58.61Z"/><path class="cls-25" d="M141.17,441.64c5.66,1.24,6.49,2.35,6.49,4.35v24.43c0,14.23-7.59,18.44-14.36,18.44-8.63,0-14.7-6.91-14.63-18.57v-25.2c0-2,.76-2.62,5.18-3.45v-.76H102.58v.76c4.35.83,5.11,1.45,5.11,3.45v23.4c-.07,18.43,11.6,23.75,22.16,23.75,11.46,0,19-5.94,19-22.09V446c0-2,.76-3.11,6.49-4.35v-.76H141.17Z"/><path class="cls-24" d="M195.09,441.64c5.31,1.24,6.14,2.35,6.14,4.35v29.68H201L174,440.88H158.92v.76a5.81,5.81,0,0,1,4,2.28l2.14,2.76v39.83c0,2-.76,3.11-6.14,4.35v.76h13.53v-.76c-5.39-1.24-6.21-2.35-6.21-4.35v-37.9h.34l33.48,43h2.35V446c0-2,.82-3.11,6.21-4.35v-.76H195.09Z"/><path class="cls-24" d="M213.25,441.64c4.35.83,5.18,1.45,5.18,3.45v42.32c0,2-.83,2.62-5.18,3.45v.76h21.26v-.76c-4.35-.83-5.11-1.45-5.11-3.45V445.09c0-2,.76-2.62,5.11-3.45v-.76H213.25Z"/><path class="cls-24" d="M279.52,441.64c4.28.9,6.07,1.66,6.07,3a3.91,3.91,0,0,1-.27,1.1l-13.95,34h-.27l-15.19-33.89a2.81,2.81,0,0,1-.28-1.17c0-1.38,1.45-2.14,5-3v-.76H237.82v.76c4.49,1.11,5.32,2,6.42,4.21l21.27,45.77h2.2l18.85-45.77c.9-2.21,2.21-3.1,6.56-4.21v-.76h-13.6Z"/><path class="cls-24" d="M322.74,490.44H311.28V466.56h3.24c8.28,0,10.42,2,11.94,8.08h.76V457.31h-.76c-1.52,6.07-3.66,8.08-11.94,8.08h-3.24V442.05H322c10.08,0,12.15,1.66,14.16,11.74H337V440.88H295.19v.76c4.35.83,5.11,1.45,5.11,3.45v42.32c0,2-.76,2.62-5.11,3.45v.76h42.46V478.71h-.76C334.81,488.79,332.74,490.44,322.74,490.44Z"/><path class="cls-26" d="M386,485.89l-7.59-12c-2.21-3.59-4.77-5.53-8.15-6.35v-.21c8.63-1.31,14.91-5.25,14.91-12.91,0-9.94-10.35-13.53-22.71-13.53H341.31v.76c4.35.83,5.11,1.45,5.11,3.45v42.32c0,2-.76,2.62-5.11,3.45v.76H362.5v-.76c-4.35-.83-5.11-1.45-5.11-3.45V467.87h5.39l11,18.29c2.28,4.21,5.73,5.8,10.63,5.8a47.79,47.79,0,0,0,8.56-1v-.83a5.56,5.56,0,0,1-1,.07C389.56,490.17,387.76,488.86,386,485.89ZM361.74,466.7h-4.35V442.05h4.35c7.25,0,12,4.77,12,12.36S369,466.7,361.74,466.7Z"/><path class="cls-24" d="M410.75,457.1c-5-2-7.45-4.55-7.45-8.14,0-4,3-7.53,10.63-7.53s14.63,3.59,16,13.81h.82V443.37a50.52,50.52,0,0,0-16.91-3.11c-10.08,0-18.29,3.93-18.29,13.53,0,12.15,12.22,14.43,21,17.95,6.08,2.55,10.08,5.73,10.08,10.7s-4,8.62-10.77,8.62c-7.24,0-16.7-4.28-18.15-15.32h-.83l.07,13.53a60.49,60.49,0,0,0,17.74,3c11.53,0,20.16-4.56,20.16-15.26C434.85,462.83,419.25,460.28,410.75,457.1Z"/><path class="cls-24" d="M441,441.64c4.35.83,5.18,1.45,5.18,3.45v42.32c0,2-.83,2.62-5.18,3.45v.76h21.26v-.76c-4.34-.83-5.1-1.45-5.1-3.45V445.09c0-2,.76-2.62,5.1-3.45v-.76H441Z"/><path class="cls-24" d="M467.23,453.79H468c1.79-9.73,4.07-11.74,14.15-11.74h3.1v45.36c0,2-.76,2.62-4.76,3.45v.76H501v-.76c-4-.83-4.76-1.45-4.76-3.45V442.05h3.11c10,0,12.28,2,14.15,11.74h.76V440.88h-47Z"/><path class="cls-24" d="M555,441.64c4.14.83,5.79,1.66,5.79,2.9a2.56,2.56,0,0,1-.41,1.24l-11.87,20.64h-.28l-13.11-20.57a2.71,2.71,0,0,1-.56-1.45c0-1.1,1.31-1.93,4.49-2.76v-.76H516.24v.76c4.49,1.11,5.52,2.28,6.9,4.21l14.64,22.37v19.19c0,2-.76,2.62-5.11,3.45v.76h21.19v-.76c-4.35-.83-5.11-1.45-5.11-3.45V468.29l12.91-22.44c1.18-2.07,2.69-3.1,7-4.21v-.76H555Z"/></g></g></svg>