<svg xmlns="http://www.w3.org/2000/svg" width="45.24" height="32.323" viewBox="0 0 45.24 32.323">
  <g id="Groupe_8517" data-name="Groupe 8517" transform="translate(0 -73.093)">
    <path id="Tracé_6467" data-name="Tracé 6467" d="M44.448,101.8l-4.342-1.934a.581.581,0,0,0-.192-.041l-34.322.042a2.207,2.207,0,0,1,1.57-.666l6.9-.016a1.529,1.529,0,0,0,1.313-.756.471.471,0,0,0-.814-.475.584.584,0,0,1-.5.289l-6.9.016a3.15,3.15,0,0,0-2.735,1.61l-2.643.006a1.5,1.5,0,0,0-1.5,1.506l.006,2.537a1.5,1.5,0,0,0,1.5,1.5h0l38.132-.051a.528.528,0,0,0,.193-.042l4.333-1.954a.861.861,0,0,0,0-1.571Zm-4.061-.777,1.871.834v1.47l-1.864.841C40.394,104.117,40.387,100.858,40.387,101.022ZM43.2,102.9v-.625l.7.31Zm-41.41,1.574h0a.561.561,0,0,1-.56-.559l-.006-2.537a.563.563,0,0,1,.559-.562l2.453-.006c0,.047.009,3.881.008,3.658Zm3.4-.008c0-.047-.009-3.9-.008-3.657l34.265-.042c0,.052.009,3.891.008,3.657ZM43.355,75.107H41.116a2.486,2.486,0,0,0-2.436-2.014H37.125a.471.471,0,0,0-.471.471v1.543c-5.176,0-33.25,0-34.769,0A1.887,1.887,0,0,0,0,76.992V93.206a1.887,1.887,0,0,0,1.885,1.885h41.47a1.887,1.887,0,0,0,1.885-1.885V76.992A1.887,1.887,0,0,0,43.355,75.107ZM37.6,74.036H38.68a1.543,1.543,0,0,1,1.541,1.541V90.661a2.472,2.472,0,0,0-1.541-.537H37.6ZM36.654,80H25.469a.471.471,0,0,0,0,.942H36.654v4.21H11.4a.471.471,0,0,0,0,.942H36.654v2.143H11.4a.471.471,0,1,0,0,.942H36.654V90.6a.471.471,0,0,0,.471.471H38.68a1.541,1.541,0,1,1,0,3.082H9.048v-18.1H36.654V80ZM8.1,94.148H1.885a.943.943,0,0,1-.943-.943V76.992a.943.943,0,0,1,.943-.943H8.1v18.1Zm36.2-.942a.943.943,0,0,1-.943.943H40.612a2.459,2.459,0,0,0,.552-1.541V76.049h2.191a.943.943,0,0,1,.943.943Z"/>
    <path id="Tracé_6468" data-name="Tracé 6468" d="M34.018,132.957H44.7a.471.471,0,0,0,.471-.471v-4.128a.471.471,0,0,0-.471-.471H34.018a.471.471,0,0,0-.471.471v4.128A.471.471,0,0,0,34.018,132.957Zm.471-4.128h9.736v3.186H34.489Zm-.471,13.387H49.064a.471.471,0,0,0,0-.942H34.018a.471.471,0,0,0,0,.942Zm-8.74-13.387H29a.471.471,0,1,0,0-.942H25.278a.471.471,0,1,0,0,.942Zm0,2.677H29a.471.471,0,0,0,0-.942H25.278a.471.471,0,0,0,0,.942Zm0,2.677H29a.471.471,0,0,0,0-.942H25.278a.471.471,0,0,0,0,.942Zm0,2.677H29a.471.471,0,1,0,0-.942H25.278a.471.471,0,1,0,0,.942Zm0,2.677H29a.471.471,0,1,0,0-.942H25.278a.471.471,0,0,0,0,.942Zm0,2.677H29a.471.471,0,1,0,0-.942H25.278a.471.471,0,1,0,0,.942Z" transform="translate(-22.615 -49.952)"/>
  </g>
</svg>
