<svg xmlns="http://www.w3.org/2000/svg" width="40.001" height="40" viewBox="0 0 40.001 40">
  <g id="noun-bank-transfer-3865707" transform="translate(-69.988 -0.002)">
    <path id="Tracé_6470" data-name="Tracé 6470" d="M91.807,17.578V8.487H89.988a.606.606,0,0,1-.606-.606V5.457a.606.606,0,0,1,.335-.542l9.7-4.849a.607.607,0,0,1,.542,0l9.7,4.849a.606.606,0,0,1,.335.542V7.881a.606.606,0,0,1-.606.606h-1.818v9.091h1.818a.606.606,0,0,1,0,1.212H89.988a.606.606,0,0,1,0-1.212Zm-1.212-10.3h18.182V5.831L99.686,1.285,90.6,5.831Zm12.122,10.3h3.636V8.487h-3.636Zm-1.212,0V8.487H97.867v9.091Zm-4.849,0V8.487H93.019v9.091ZM88.17,29.7V38.79h1.818a.606.606,0,1,1,0,1.212H70.594a.606.606,0,1,1,0-1.212h1.818V29.7H70.594a.606.606,0,0,1-.606-.606V26.669a.606.606,0,0,1,.335-.542l9.7-4.849a.605.605,0,0,1,.542,0l9.7,4.849a.606.606,0,0,1,.335.542v2.424a.606.606,0,0,1-.606.606ZM71.2,27.044v1.444H89.382V27.044L80.291,22.5ZM86.958,29.7H83.322V38.79h3.636Zm-4.849,0H78.473V38.79h3.636Zm-4.849,0H73.625V38.79h3.636ZM75.443,13.084V10.911A6.061,6.061,0,0,1,81.5,4.85h2.424a.606.606,0,0,1,0,1.212H81.5a4.849,4.849,0,0,0-4.849,4.849v2.173l2-2a.606.606,0,0,1,.857.857l-3.03,3.03a.606.606,0,0,1-.857,0l-3.03-3.03a.606.606,0,0,1,.857-.857ZM104.534,26.92v2.173a6.061,6.061,0,0,1-6.061,6.061H96.049a.606.606,0,1,1,0-1.212h2.424a4.849,4.849,0,0,0,4.849-4.849V26.92l-2,2a.606.606,0,0,1-.857-.857l3.03-3.03a.606.606,0,0,1,.857,0l3.03,3.03a.606.606,0,1,1-.857.857Z"/>
  </g>
</svg>
