<svg xmlns="http://www.w3.org/2000/svg" width="36.853" height="42.071" viewBox="0 0 36.853 42.071">
  <g id="Calque_2" data-name="Calque 2" transform="translate(0.006)">
    <g id="Calque_1" data-name="Calque 1" transform="translate(-0.006)">
      <path id="Tracé_6477" data-name="Tracé 6477" d="M21.459,0c.758.176,1.515.347,2.271.528a2.273,2.273,0,0,1,.422.158A.612.612,0,0,1,24.5,1.5a.622.622,0,0,1-.785.329c-.769-.193-1.528-.434-2.306-.549a8.115,8.115,0,0,0-6.353,2.1,9.635,9.635,0,0,1,7.057,12.061c1.443,0,2.855,0,4.26-.008a.5.5,0,0,0,.336-.184c.53-.708,1.044-1.427,1.58-2.166a2.907,2.907,0,0,1-1.063-2.734A2.864,2.864,0,0,1,24.3,8.983a2.363,2.363,0,0,1-.32-1.1,2.582,2.582,0,0,1,1.083-2.306,3.119,3.119,0,0,1,2.1-.5.839.839,0,0,0-.238-.95c-.378-.357-.742-.727-1.125-1.078-.35-.322-.429-.673-.191-.963s.606-.3.976.013c.347.288.676.6,1.037.918A2.587,2.587,0,0,1,30.8,2.045a2.723,2.723,0,0,1,1.668,3.038,2.771,2.771,0,0,1,2.866,1.3A2.6,2.6,0,0,1,35.013,9.5a1.781,1.781,0,0,0,.127.189,6.6,6.6,0,0,1,1.706,4.539q-.008,10.561,0,21.122a6.578,6.578,0,0,1-6.742,6.72H4.709A4.555,4.555,0,0,1,.051,38.164a5.218,5.218,0,0,1-.056-.849q0-12.518,0-25.026A4.569,4.569,0,0,1,3.812,7.6a.269.269,0,0,1,.08-.014c.8.135,1.18-.38,1.636-.926a9.419,9.419,0,0,1,7.644-3.5.7.7,0,0,0,.467-.161A9.54,9.54,0,0,1,19.587.057.614.614,0,0,0,19.733,0Zm8.622,40.847a5.38,5.38,0,0,0,5.51-5.98,114.91,114.91,0,0,1,.01-12.362,5.358,5.358,0,0,0-5.537-5.82c-8.274,0-16.547-.013-24.816.011A5.256,5.256,0,0,1,1.23,15.239V37.33a3.33,3.33,0,0,0,3.532,3.523H11.3m9.3-25.414c.1,0,.253-.173.292-.3a7.59,7.59,0,0,0,.29-3.49A8.35,8.35,0,1,0,4.894,15.109a.417.417,0,0,0,.489.347M29.83,3.094a1.369,1.369,0,0,0-1.384,1.337c-.013.356,0,.712,0,1.067,0,.624-.21.824-.845.827h-.988a1.38,1.38,0,0,0-1.4,1.363A1.4,1.4,0,0,0,26.6,9.116c.383.012.769,0,1.15,0a.623.623,0,0,1,.694.682c.011.369,0,.739,0,1.109a1.366,1.366,0,0,0,1.373,1.427,1.391,1.391,0,0,0,1.415-1.4c.012-.37,0-.74,0-1.109.009-.5.22-.712.733-.719.383-.005.769.012,1.15-.007a1.392,1.392,0,0,0-.027-2.782c-.4-.011-.8,0-1.194-.007a.682.682,0,0,1-.659-.667c-.011-.4.009-.795-.008-1.191A1.382,1.382,0,0,0,29.83,3.094Zm2.635,7.3v.293a2.638,2.638,0,0,1-2.918,2.878.371.371,0,0,0-.276.1c-.349.579-.679,1.167-1.032,1.784h1.985A6.519,6.519,0,0,1,35.3,17.808c.082.1.171.187.291.316,0-1.554.054-3.046-.016-4.532a4.867,4.867,0,0,0-1.46-3.173.5.5,0,0,0-.337-.158c-.418.025-.839.085-1.309.136ZM3.658,15.28a9.806,9.806,0,0,1,.5-6.463,3.317,3.317,0,0,0-2.916,3A3.278,3.278,0,0,0,3.658,15.28Z" transform="translate(0.006)"/>
    </g>
  </g>
</svg>
